<svg width="271" height="298" viewBox="0 0 271 298" fill="none" xmlns="http://www.w3.org/2000/svg">
    <path d="M135.5 7.5L263.5 78.2368V219.711L135.5 290.447L7.5 219.711V78.2368L135.5 7.5Z"
          stroke="url(#paint0_linear_249_13)" stroke-width="15" stroke-linejoin="round"/>
    <path opacity="0.4" d="M135.816 54.5L230.132 108.395V189.237L135.816 243.132L41.5 189.237V108.395L135.816 54.5Z"
          fill="url(#paint1_linear_249_13)"/>
    <path opacity="0.6"
          d="M135.815 88.1841L209.92 131.974V179.131L135.815 222.921L61.71 179.131V131.974L135.815 88.1841Z"
          fill="url(#paint2_linear_249_13)"/>
    <path d="M135.816 121.868L189.71 152.184V185.868L135.816 216.184L81.9209 185.868V152.184L135.816 121.868Z"
          fill="url(#paint3_linear_249_13)"/>
    <defs>
        <linearGradient id="paint0_linear_249_13" x1="135.5" y1="27.7105" x2="135.5" y2="270.237"
                        gradientUnits="userSpaceOnUse">
            <stop stop-color="#9333EA"/>
            <stop offset="1" stop-color="#7C3AED"/>
        </linearGradient>
        <linearGradient id="paint1_linear_249_13" x1="135.816" y1="88.1842" x2="135.816" y2="199.342"
                        gradientUnits="userSpaceOnUse">
            <stop stop-color="#9333EA"/>
            <stop offset="1" stop-color="#7C3AED"/>
        </linearGradient>
        <linearGradient id="paint2_linear_249_13" x1="135.815" y1="115.131" x2="135.815" y2="195.974"
                        gradientUnits="userSpaceOnUse">
            <stop stop-color="#A855F7"/>
            <stop offset="1" stop-color="#9333EA"/>
        </linearGradient>
        <linearGradient id="paint3_linear_249_13" x1="135.816" y1="142.079" x2="135.816" y2="195.974"
                        gradientUnits="userSpaceOnUse">
            <stop stop-color="#C084FC"/>
            <stop offset="1" stop-color="#A855F7"/>
        </linearGradient>
    </defs>
</svg>
